<svg width="127" height="127" viewBox="0 0 127 127" fill="none" xmlns="http://www.w3.org/2000/svg">
<path d="M63.5 100.542C83.9576 100.542 100.542 83.9575 100.542 63.5C100.542 43.0424 83.9576 26.4583 63.5 26.4583C43.0425 26.4583 26.4584 43.0424 26.4584 63.5C26.4584 83.9575 43.0425 100.542 63.5 100.542Z" stroke="black" stroke-width="2" stroke-linecap="round" stroke-linejoin="round"/>
<path d="M63.5 47.625V63.5L71.4375 71.4375" stroke="black" stroke-width="2" stroke-linecap="round" stroke-linejoin="round"/>
<path d="M87.3654 91.8104L85.5133 112.077C85.2749 114.716 84.0555 117.169 82.096 118.953C80.1364 120.736 77.5794 121.719 74.93 121.708H52.0171C49.3677 121.719 46.8106 120.736 44.8511 118.953C42.8916 117.169 41.6722 114.716 41.4337 112.077L39.5817 91.8104M39.6346 35.1896L41.4867 14.9225C41.7243 12.2929 42.9362 9.84717 44.8845 8.06529C46.8328 6.28342 49.3768 5.29414 52.0171 5.29165H75.0358C77.6852 5.2809 80.2423 6.26425 82.2018 8.04741C84.1613 9.83057 85.3807 12.2838 85.6192 14.9225L87.4713 35.1896" stroke="black" stroke-width="2" stroke-linecap="round" stroke-linejoin="round"/>
</svg>
